<svg width="90" height="90" viewBox="0 0 90 90" fill="none" xmlns="http://www.w3.org/2000/svg">
<path d="M45 63.75C46.0625 63.75 46.9538 63.39 47.6738 62.67C48.3938 61.95 48.7525 61.06 48.75 60C48.7475 58.94 48.3875 58.05 47.67 57.33C46.9525 56.61 46.0625 56.25 45 56.25C43.9375 56.25 43.0475 56.61 42.33 57.33C41.6125 58.05 41.2525 58.94 41.25 60C41.2475 61.06 41.6075 61.9512 42.33 62.6737C43.0525 63.3962 43.9425 63.755 45 63.75ZM41.25 48.75H48.75V26.25H41.25V48.75ZM45 82.5C39.8125 82.5 34.9375 81.515 30.375 79.545C25.8125 77.575 21.8438 74.9038 18.4688 71.5313C15.0938 68.1588 12.4225 64.19 10.455 59.625C8.48751 55.06 7.5025 50.185 7.5 45C7.4975 39.815 8.48251 34.94 10.455 30.375C12.4275 25.81 15.0988 21.8413 18.4688 18.4688C21.8388 15.0963 25.8075 12.425 30.375 10.455C34.9425 8.485 39.8175 7.5 45 7.5C50.1825 7.5 55.0575 8.485 59.625 10.455C64.1925 12.425 68.1613 15.0963 71.5313 18.4688C74.9013 21.8413 77.5738 25.81 79.5488 30.375C81.5238 34.94 82.5075 39.815 82.5 45C82.4925 50.185 81.5075 55.06 79.545 59.625C77.5825 64.19 74.9113 68.1588 71.5313 71.5313C68.1513 74.9038 64.1825 77.5762 59.625 79.5487C55.0675 81.5212 50.1925 82.505 45 82.5ZM45 75C53.375 75 60.4688 72.0937 66.2813 66.2812C72.0938 60.4687 75 53.375 75 45C75 36.625 72.0938 29.5312 66.2813 23.7187C60.4688 17.9062 53.375 15 45 15C36.625 15 29.5313 17.9062 23.7188 23.7187C17.9063 29.5312 15 36.625 15 45C15 53.375 17.9063 60.4687 23.7188 66.2812C29.5313 72.0937 36.625 75 45 75Z" fill="#F24822"/>
</svg>
