<svg width="20" height="20" viewBox="0 0 20 20" fill="none" xmlns="http://www.w3.org/2000/svg">
<path d="M15.8332 12.5V2.49996H19.1665V12.5H15.8332ZM12.4998 2.49996C12.9419 2.49996 13.3658 2.67555 13.6783 2.98812C13.9909 3.30068 14.1665 3.7246 14.1665 4.16663V12.5C14.1665 12.9583 13.9832 13.375 13.6748 13.675L8.1915 19.1666L7.30817 18.2833C7.08317 18.0583 6.9415 17.75 6.9415 17.4083L6.9665 17.1416L7.75817 13.3333H2.49984C2.05781 13.3333 1.63389 13.1577 1.32133 12.8451C1.00876 12.5326 0.83317 12.1087 0.83317 11.6666V9.99996C0.83317 9.78329 0.874836 9.58329 0.949837 9.39163L3.4665 3.51663C3.7165 2.91663 4.30817 2.49996 4.99984 2.49996H12.4998ZM12.4998 4.16663H4.97484L2.49984 9.99996V11.6666H9.82484L8.88317 16.1L12.4998 12.475V4.16663Z" fill="black"/>
</svg>
