<svg width="24" height="24" viewBox="0 0 24 24" fill="none" xmlns="http://www.w3.org/2000/svg">
<path d="M20.9548 11.1041C20.7853 9.41072 20.1392 7.80014 19.0915 6.45913C18.0437 5.11813 16.6372 4.10167 15.0352 3.52766C13.4331 2.95365 11.7011 2.84563 10.0402 3.21611C8.3792 3.5866 6.85731 4.42041 5.65104 5.62083C4.44478 6.82125 3.60357 8.33907 3.22501 9.99822C2.84645 11.6574 2.94606 13.3898 3.51227 14.9947C4.07847 16.5995 5.08809 18.0109 6.42398 19.0652C7.75987 20.1195 9.3673 20.7734 11.0598 20.951M8.99978 10.0001H9.00978M14.9998 10.0001H15.0098" stroke="black" stroke-width="2" stroke-linecap="round" stroke-linejoin="round"/>
<path d="M9.5 15.0001C10.158 15.6721 11.06 16.0001 12 16.0001C12.126 16.0001 12.2513 15.9941 12.376 15.9821M18.42 15.6101C18.615 15.4151 18.8465 15.2604 19.1013 15.1549C19.3561 15.0493 19.6292 14.995 19.905 14.995C20.1808 14.995 20.4539 15.0493 20.7087 15.1549C20.9635 15.2604 21.195 15.4151 21.39 15.6101C21.585 15.8051 21.7397 16.0366 21.8452 16.2914C21.9508 16.5462 22.0051 16.8193 22.0051 17.0951C22.0051 17.3709 21.9508 17.644 21.8452 17.8988C21.7397 18.1536 21.585 18.3851 21.39 18.5801L18 22.0001H15V19.0001L18.42 15.6101Z" stroke="black" stroke-width="2" stroke-linecap="round" stroke-linejoin="round"/>
</svg>
