<svg width="16" height="16" viewBox="0 0 16 16" fill="none" xmlns="http://www.w3.org/2000/svg">
<path fill-rule="evenodd" clip-rule="evenodd" d="M10.6667 9.33337C11.5507 9.33337 12.3986 9.68456 13.0237 10.3097C13.6488 10.9348 14 11.7827 14 12.6667V14C14 14.1769 13.9298 14.3464 13.8047 14.4714C13.6797 14.5965 13.5101 14.6667 13.3333 14.6667C13.1565 14.6667 12.987 14.5965 12.8619 14.4714C12.7369 14.3464 12.6667 14.1769 12.6667 14V12.6667C12.6667 12.1363 12.456 11.6276 12.0809 11.2525C11.7058 10.8774 11.1971 10.6667 10.6667 10.6667H5.33333C4.8029 10.6667 4.29419 10.8774 3.91912 11.2525C3.54405 11.6276 3.33333 12.1363 3.33333 12.6667V14C3.33333 14.1769 3.2631 14.3464 3.13807 14.4714C3.01305 14.5965 2.84348 14.6667 2.66667 14.6667C2.48986 14.6667 2.32029 14.5965 2.19526 14.4714C2.07024 14.3464 2 14.1769 2 14V12.6667C2 11.7827 2.35119 10.9348 2.97631 10.3097C3.60143 9.68456 4.44928 9.33337 5.33333 9.33337H10.6667ZM14.276 6.05404C14.3957 5.9332 14.557 5.86269 14.727 5.85692C14.897 5.85115 15.0628 5.91057 15.1904 6.02302C15.318 6.13546 15.3978 6.29243 15.4135 6.46179C15.4291 6.63115 15.3795 6.80009 15.2747 6.93404L15.2187 6.99737L13.3333 8.88271C13.2185 8.99749 13.0658 9.06645 12.9038 9.07663C12.7418 9.08682 12.5816 9.03754 12.4533 8.93804L12.3907 8.88271L11.448 7.94004C11.3272 7.82035 11.2566 7.65899 11.2509 7.48901C11.2451 7.31902 11.3045 7.15326 11.417 7.02565C11.5294 6.89805 11.6864 6.81824 11.8558 6.80257C12.0251 6.7869 12.1941 6.83656 12.328 6.94137L12.3907 6.99671L12.862 7.46871L14.276 6.05404ZM8 1.33337C8.88406 1.33337 9.7319 1.68456 10.357 2.30968C10.9821 2.93481 11.3333 3.78265 11.3333 4.66671C11.3333 5.55076 10.9821 6.39861 10.357 7.02373C9.7319 7.64885 8.88406 8.00004 8 8.00004C7.11595 8.00004 6.2681 7.64885 5.64298 7.02373C5.01786 6.39861 4.66667 5.55076 4.66667 4.66671C4.66667 3.78265 5.01786 2.93481 5.64298 2.30968C6.2681 1.68456 7.11595 1.33337 8 1.33337ZM8 2.66671C7.73736 2.66671 7.47728 2.71844 7.23463 2.81895C6.99198 2.91946 6.7715 3.06678 6.58579 3.25249C6.40007 3.43821 6.25275 3.65869 6.15224 3.90134C6.05173 4.14399 6 4.40406 6 4.66671C6 4.92935 6.05173 5.18942 6.15224 5.43207C6.25275 5.67473 6.40007 5.8952 6.58579 6.08092C6.7715 6.26664 6.99198 6.41396 7.23463 6.51447C7.47728 6.61498 7.73736 6.66671 8 6.66671C8.53043 6.66671 9.03914 6.45599 9.41421 6.08092C9.78929 5.70585 10 5.19714 10 4.66671C10 4.13627 9.78929 3.62757 9.41421 3.25249C9.03914 2.87742 8.53043 2.66671 8 2.66671Z" fill="black"/>
</svg>
