<svg width="22" height="16" viewBox="0 0 22 16" fill="none" xmlns="http://www.w3.org/2000/svg">
<path d="M11 4.8C10.2044 4.8 9.44129 5.13714 8.87868 5.73726C8.31607 6.33737 8 7.15131 8 8C8 8.84869 8.31607 9.66263 8.87868 10.2627C9.44129 10.8629 10.2044 11.2 11 11.2C11.7956 11.2 12.5587 10.8629 13.1213 10.2627C13.6839 9.66263 14 8.84869 14 8C14 7.15131 13.6839 6.33737 13.1213 5.73726C12.5587 5.13714 11.7956 4.8 11 4.8ZM11 13.3333C9.67392 13.3333 8.40215 12.7714 7.46447 11.7712C6.52678 10.771 6 9.41449 6 8C6 6.58551 6.52678 5.22896 7.46447 4.22876C8.40215 3.22857 9.67392 2.66667 11 2.66667C12.3261 2.66667 13.5979 3.22857 14.5355 4.22876C15.4732 5.22896 16 6.58551 16 8C16 9.41449 15.4732 10.771 14.5355 11.7712C13.5979 12.7714 12.3261 13.3333 11 13.3333ZM11 0C6 0 1.73 3.31733 0 8C1.73 12.6827 6 16 11 16C16 16 20.27 12.6827 22 8C20.27 3.31733 16 0 11 0Z" fill="#8C8F9A"/>
</svg>
