<svg width="90" height="90" viewBox="0 0 90 90" fill="none" xmlns="http://www.w3.org/2000/svg">
<path d="M16.0716 30.5358C16.0716 28.6363 16.4457 26.7555 17.1726 25.0006C17.8995 23.2457 18.9649 21.6512 20.3081 20.308C21.6512 18.9649 23.2457 17.8995 25.0006 17.1726C26.7555 16.4457 28.6364 16.0715 30.5359 16.0715C32.4353 16.0715 34.3162 16.4457 36.0711 17.1726C37.826 17.8995 39.4205 18.9649 40.7636 20.308C42.1068 21.6512 43.1722 23.2457 43.8991 25.0006C44.626 26.7555 45.0001 28.6363 45.0001 30.5358C45.0001 34.372 43.4762 38.051 40.7636 40.7636C38.0511 43.4762 34.372 45.0001 30.5359 45.0001C26.6997 45.0001 23.0206 43.4762 20.3081 40.7636C17.5955 38.051 16.0716 34.372 16.0716 30.5358ZM30.5359 20.893C29.2695 20.893 28.0156 21.1424 26.8457 21.627C25.6758 22.1116 24.6127 22.8219 23.7173 23.7173C22.8219 24.6127 22.1116 25.6757 21.627 26.8457C21.1424 28.0156 20.893 29.2695 20.893 30.5358C20.893 31.8021 21.1424 33.0561 21.627 34.226C22.1116 35.3959 22.8219 36.4589 23.7173 37.3543C24.6127 38.2498 25.6758 38.9601 26.8457 39.4447C28.0156 39.9293 29.2695 40.1787 30.5359 40.1787C33.0933 40.1787 35.546 39.1627 37.3544 37.3543C39.1628 35.546 40.1787 33.0933 40.1787 30.5358C40.1787 27.9784 39.1628 25.5257 37.3544 23.7173C35.546 21.9089 33.0933 20.893 30.5359 20.893ZM53.0359 33.7501C53.0359 32.2727 53.3268 30.8098 53.8922 29.4449C54.4576 28.08 55.2862 26.8398 56.3309 25.7952C57.3756 24.7505 58.6158 23.9218 59.9807 23.3565C61.3456 22.7911 62.8085 22.5001 64.2859 22.5001C65.7632 22.5001 67.2261 22.7911 68.591 23.3565C69.956 23.9218 71.1961 24.7505 72.2408 25.7952C73.2855 26.8398 74.1141 28.08 74.6795 29.4449C75.2449 30.8098 75.5359 32.2727 75.5359 33.7501C75.5359 36.7338 74.3506 39.5953 72.2408 41.7051C70.131 43.8148 67.2695 45.0001 64.2859 45.0001C61.3022 45.0001 58.4407 43.8148 56.3309 41.7051C54.2211 39.5953 53.0359 36.7338 53.0359 33.7501ZM64.2859 27.3215C62.5809 27.3215 60.9458 27.9988 59.7402 29.2044C58.5346 30.41 57.8573 32.0451 57.8573 33.7501C57.8573 35.4551 58.5346 37.0902 59.7402 38.2958C60.9458 39.5014 62.5809 40.1787 64.2859 40.1787C65.9908 40.1787 67.6259 39.5014 68.8315 38.2958C70.0371 37.0902 70.7144 35.4551 70.7144 33.7501C70.7144 32.0451 70.0371 30.41 68.8315 29.2044C67.6259 27.9988 65.9908 27.3215 64.2859 27.3215ZM6.42871 58.6608C6.42871 56.7427 7.19067 54.9032 8.54696 53.5469C9.90325 52.1906 11.7428 51.4287 13.6609 51.4287H47.4109C48.1716 51.4308 48.898 51.5422 49.5901 51.763C49.0406 52.3929 48.6393 53.138 48.4157 53.9434C48.1921 54.7489 48.1519 55.5942 48.298 56.4172C48.0145 56.3097 47.7141 56.2531 47.4109 56.2501H13.6609C13.0215 56.2501 12.4083 56.5041 11.9562 56.9562C11.5041 57.4083 11.2501 58.0215 11.2501 58.6608V60.3097L11.2791 60.6312C11.3112 60.9333 11.3755 61.3865 11.5169 61.9426C11.8917 63.4293 12.5582 64.8267 13.4776 66.0537C15.6441 68.9369 20.2759 72.3215 30.5359 72.3215C40.7959 72.3215 45.4276 68.9369 47.5909 66.0537C47.8201 65.7451 48.028 65.4387 48.2144 65.1344C48.2219 66.0617 48.4586 66.9727 48.9033 67.7864C49.348 68.6001 49.987 69.2912 50.7634 69.7983C50.5481 70.0505 50.3252 70.296 50.0948 70.5344C49.9384 70.6758 49.7894 70.8247 49.648 70.9812C46.0673 74.4269 40.1434 77.143 30.5359 77.143C19.0994 77.143 12.883 73.2955 9.62371 68.9465C8.31785 67.2059 7.3716 65.2227 6.84014 63.1126C6.62978 62.2724 6.49531 61.4151 6.43835 60.5508L6.42871 60.3676V58.6608ZM53.8394 53.0358C53.2001 53.0358 52.5869 53.2898 52.1348 53.7419C51.6827 54.194 51.4287 54.8072 51.4287 55.4465C51.4287 56.0859 51.6827 56.6991 52.1348 57.1512C52.5869 57.6033 53.2001 57.8572 53.8394 57.8572H81.1609C81.8002 57.8572 82.4134 57.6033 82.8655 57.1512C83.3176 56.6991 83.5716 56.0859 83.5716 55.4465C83.5716 54.8072 83.3176 54.194 82.8655 53.7419C82.4134 53.2898 81.8002 53.0358 81.1609 53.0358H53.8394ZM53.8394 62.6787C53.2001 62.6787 52.5869 62.9327 52.1348 63.3848C51.6827 63.8369 51.4287 64.45 51.4287 65.0894C51.4287 65.7287 51.6827 66.3419 52.1348 66.794C52.5869 67.2461 53.2001 67.5001 53.8394 67.5001H81.1609C81.8002 67.5001 82.4134 67.2461 82.8655 66.794C83.3176 66.3419 83.5716 65.7287 83.5716 65.0894C83.5716 64.45 83.3176 63.8369 82.8655 63.3848C82.4134 62.9327 81.8002 62.6787 81.1609 62.6787H53.8394ZM53.8394 72.3215C53.2001 72.3215 52.5869 72.5755 52.1348 73.0276C51.6827 73.4797 51.4287 74.0929 51.4287 74.7322C51.4287 75.3716 51.6827 75.9848 52.1348 76.4369C52.5869 76.889 53.2001 77.143 53.8394 77.143H81.1609C81.8002 77.143 82.4134 76.889 82.8655 76.4369C83.3176 75.9848 83.5716 75.3716 83.5716 74.7322C83.5716 74.0929 83.3176 73.4797 82.8655 73.0276C82.4134 72.5755 81.8002 72.3215 81.1609 72.3215H53.8394Z" fill="black"/>
</svg>
