<svg width="37" height="41" viewBox="0 0 37 41" fill="none" xmlns="http://www.w3.org/2000/svg">
<path d="M30.1667 13.4444C30.1667 10.144 28.9376 6.97868 26.7495 4.6449C24.5616 2.3111 21.5942 1 18.5 1C15.4058 1 12.4383 2.3111 10.2504 4.6449C8.06249 6.97868 6.83333 10.144 6.83333 13.4444C6.83333 27.963 1 32.1111 1 32.1111H36C36 32.1111 30.1667 27.963 30.1667 13.4444Z" stroke="#666A79" stroke-width="2" stroke-linecap="round" stroke-linejoin="round"/>
<path d="M21.8633 37.9443C21.5215 38.5337 21.0309 39.0229 20.4404 39.3628C19.8501 39.7029 19.1808 39.882 18.4994 39.882C17.8181 39.882 17.1488 39.7029 16.5585 39.3628C15.9682 39.0229 15.4774 38.5337 15.1356 37.9443" stroke="#666A79" stroke-width="2" stroke-linecap="round" stroke-linejoin="round"/>
</svg>
