<svg width="90" height="90" viewBox="0 0 90 90" fill="none" xmlns="http://www.w3.org/2000/svg">
<path d="M11.25 19.6875V64.6875C11.25 66.1793 11.8426 67.6101 12.8975 68.665C13.9524 69.7199 15.3832 70.3125 16.875 70.3125H73.125C74.6168 70.3125 76.0476 69.7199 77.1025 68.665C78.1574 67.6101 78.75 66.1793 78.75 64.6875V19.6875H11.25ZM11.25 14.0625H78.75C80.2418 14.0625 81.6726 14.6551 82.7275 15.71C83.7824 16.7649 84.375 18.1957 84.375 19.6875V64.6875C84.375 67.6712 83.1897 70.5327 81.0799 72.6424C78.9702 74.7522 76.1087 75.9375 73.125 75.9375H16.875C13.8913 75.9375 11.0298 74.7522 8.92005 72.6424C6.81026 70.5327 5.625 67.6712 5.625 64.6875V19.6875C5.625 18.1957 6.21763 16.7649 7.27252 15.71C8.32742 14.6551 9.75816 14.0625 11.25 14.0625Z" fill="black"/>
<path d="M79.4531 19.6875L57.7013 44.55C56.1174 46.3606 54.1647 47.8117 51.9741 48.8059C49.7835 49.8001 47.4056 50.3145 45 50.3145C42.5944 50.3145 40.2165 49.8001 38.0259 48.8059C35.8353 47.8117 33.8826 46.3606 32.2988 44.55L10.5469 19.6875H79.4531ZM18.0225 19.6875L36.5287 40.8431C37.5847 42.0505 38.8866 43.0182 40.3472 43.6812C41.8077 44.3442 43.3932 44.6872 44.9972 44.6872C46.6012 44.6872 48.1866 44.3442 49.6472 43.6812C51.1078 43.0182 52.4097 42.0505 53.4656 40.8431L71.9775 19.6875H18.0225Z" fill="black"/>
</svg>
