<svg width="68" height="68" viewBox="0 0 68 68" fill="none" xmlns="http://www.w3.org/2000/svg">
<path d="M4 19V11.5C4 9.51088 4.79018 7.60322 6.1967 6.1967C7.60322 4.79018 9.51088 4 11.5 4H19M4 49V56.5C4 58.4891 4.79018 60.3968 6.1967 61.8033C7.60322 63.2098 9.51088 64 11.5 64H19M49 4H56.5C58.4891 4 60.3968 4.79018 61.8033 6.1967C63.2098 7.60322 64 9.51088 64 11.5V19M49 64H56.5C58.4891 64 60.3968 63.2098 61.8033 61.8033C63.2098 60.3968 64 58.4891 64 56.5V49M22.75 26.5H22.7875M45.25 26.5H45.2875M24.625 45.4375C25.847 44.1903 27.3057 43.1994 28.9155 42.523C30.5253 41.8465 32.2539 41.4981 34 41.4981C35.7461 41.4981 37.4747 41.8465 39.0845 42.523C40.6943 43.1994 42.153 44.1903 43.375 45.4375" stroke="black" stroke-width="7.5" stroke-linecap="round" stroke-linejoin="round"/>
</svg>
